<?xml version="1.0" encoding="UTF-8" standalone="no"?>
<!-- Created with Inkscape (http://www.inkscape.org/) -->

<svg
   xmlns:dc="http://purl.org/dc/elements/1.1/"
   xmlns:cc="http://creativecommons.org/ns#"
   xmlns:rdf="http://www.w3.org/1999/02/22-rdf-syntax-ns#"
   xmlns:svg="http://www.w3.org/2000/svg"
   xmlns="http://www.w3.org/2000/svg"
   xmlns:sodipodi="http://sodipodi.sourceforge.net/DTD/sodipodi-0.dtd"
   xmlns:inkscape="http://www.inkscape.org/namespaces/inkscape"
   width="43.904774mm"
   height="27.706728mm"
   viewBox="0 0 43.904774 27.706728"
   version="1.1"
   id="svg5111"
   inkscape:version="0.92.2 (5c3e80d, 2017-08-06)"
   sodipodi:docname="Logo.svg">
  <defs
     id="defs5105" />
  <sodipodi:namedview
     id="base"
     pagecolor="#ffffff"
     bordercolor="#666666"
     borderopacity="1.0"
     inkscape:pageopacity="0.0"
     inkscape:pageshadow="2"
     inkscape:zoom="0.98994949"
     inkscape:cx="-451.90494"
     inkscape:cy="-150.63601"
     inkscape:document-units="mm"
     inkscape:current-layer="layer1"
     showgrid="false"
     inkscape:window-width="1920"
     inkscape:window-height="1001"
     inkscape:window-x="-9"
     inkscape:window-y="-9"
     inkscape:window-maximized="1" />
  <metadata
     id="metadata5108">
    <rdf:RDF>
      <cc:Work
         rdf:about="">
        <dc:format>image/svg+xml</dc:format>
        <dc:type
           rdf:resource="http://purl.org/dc/dcmitype/StillImage" />
        <dc:title />
      </cc:Work>
    </rdf:RDF>
  </metadata>
  <g
     inkscape:label="Layer 1"
     inkscape:groupmode="layer"
     id="layer1"
     transform="translate(-80.947166,-20.358273)">
    <g
       transform="matrix(0.35443725,0,0,0.35443725,85.799883,9.8072784)"
       id="g4543">
      <g
         id="g4541">
        <path
           inkscape:connector-curvature="0"
           id="use4539"
           d="m 79.364417,29.800021 0.425979,0.03969 0.420687,0.05292 0.415396,0.06879 0.410104,0.08467 0.404813,0.09525 0.396875,0.113771 0.388937,0.124354 0.383646,0.140229 0.373063,0.153459 0.36777,0.164041 0.359834,0.179917 0.351896,0.1905 0.341312,0.206375 0.330729,0.214313 0.322792,0.230187 0.314854,0.238125 0.301625,0.254 0.291042,0.261938 0.283104,0.275166 0.269875,0.28575 0.256646,0.293688 0.246062,0.306916 0.235479,0.3175 0.219605,0.325438 0.20902,0.336021 0.195792,0.346604 0.179917,0.354542 0.169333,0.362479 0.153458,0.373062 0.137584,0.381 0.121708,0.388938 0.108479,0.396875 0.0926,0.407458 0.07673,0.41275 0.06085,0.418042 0.04233,0.428625 0.02646,0.433916 0.0079,0.441855 0.0079,-0.441855 0.02646,-0.433916 0.04498,-0.425979 0.05821,-0.420688 0.07673,-0.41275 0.09261,-0.404812 0.108479,-0.399521 0.124354,-0.388938 0.137583,-0.381 0.153459,-0.373062 0.166687,-0.362479 0.182563,-0.354542 0.193145,-0.346604 0.209021,-0.336021 0.22225,-0.325438 0.232834,-0.3175 0.246062,-0.30427 0.259292,-0.296334 0.269875,-0.28575 0.280458,-0.272521 0.293688,-0.264583 0.301625,-0.251354 0.312208,-0.240771 0.322792,-0.227542 0.333375,-0.216958 0.341312,-0.203729 0.351896,-0.193146 0.357187,-0.177271 0.367771,-0.166687 0.375709,-0.153459 0.383645,-0.137583 0.388938,-0.127 0.396875,-0.111125 0.402167,-0.0979 0.410104,-0.08202 0.415396,-0.06879 0.420687,-0.05556 0.425979,-0.03704 0.431271,-0.02381 0.436563,-0.0079 0.433917,0.0079 0.43127,0.02646 0.42598,0.04498 0.42069,0.06085 0.4154,0.07673 0.4101,0.09525 0.40217,0.108479 0.39687,0.124354 0.39159,0.142875 0.38364,0.153459 0.37306,0.171979 0.36777,0.182562 0.35984,0.198438 0.34925,0.211666 0.34396,0.224896 0.33073,0.238125 0.32279,0.248709 0.31221,0.261937 0.30427,0.275167 0.29104,0.28575 0.2831,0.296333 0.26988,0.306917 0.25664,0.3175 0.24607,0.328083 0.23547,0.338667 0.21961,0.346604 0.20902,0.354542 0.19579,0.365125 0.17992,0.373062 0.16933,0.381 0.15081,0.388938 0.14023,0.396875 0.12171,0.402166 0.10848,0.410104 0.0926,0.415396 0.0767,0.420688 0.0609,0.428625 0.0423,0.431271 0.0265,0.439208 0.008,0.441854 -0.037,1.214438 -0.11642,1.182687 -0.18521,1.153583 -0.25135,1.121834 -0.3175,1.090083 -0.37571,1.060979 -0.42863,1.029229 -0.48418,1.000125 -0.52917,0.968375 -0.57415,0.936625 -0.30427,0.452438 -17.518064,33.55975 -17.518063,-33.565042 -0.301625,-0.447146 -0.574145,-0.936625 -0.529167,-0.968375 -0.484188,-1.000125 -0.43127,-1.029229 -0.375709,-1.060979 -0.314854,-1.092729 -0.254,-1.121833 -0.185208,-1.150938 -0.113771,-1.185333 -0.03969,-1.214438 0.01058,-0.441854 0.02646,-0.436562 0.04233,-0.433917 0.06086,-0.425979 0.07673,-0.423334 0.08996,-0.415395 0.108479,-0.407459 0.124354,-0.404812 0.137584,-0.394229 0.153458,-0.388938 0.166688,-0.381 0.182562,-0.373062 0.195792,-0.365125 0.206375,-0.357188 0.22225,-0.346604 0.235479,-0.336021 0.246062,-0.328083 0.256646,-0.3175 0.269875,-0.306917 0.283104,-0.298979 0.291042,-0.283104 0.301625,-0.275167 0.314854,-0.261937 0.322792,-0.251355 0.330729,-0.235479 0.341313,-0.224896 0.351895,-0.211666 0.359834,-0.198438 0.365125,-0.185208 0.375708,-0.169333 0.383646,-0.156105 0.388937,-0.140229 0.396875,-0.124354 0.404813,-0.111125 0.410104,-0.0926 0.415396,-0.07937 0.420687,-0.06085 0.42598,-0.04233 0.428625,-0.02646 0.436562,-0.01058 0.436563,0.0079 z m 8.987895,17.859375 -0.34925,0.03969 -0.341312,0.05556 -0.338667,0.07144 -0.330729,0.08731 -0.325437,0.100541 -0.320146,0.113771 -0.312209,0.127 -0.30427,0.142875 -0.29898,0.153459 -0.288395,0.166687 -0.283105,0.179917 -0.27252,0.1905 -0.264584,0.203729 -0.254,0.214312 -0.246062,0.22225 -0.232834,0.23548 -0.224895,0.246062 -0.214313,0.254 -0.203729,0.264583 -0.1905,0.272521 -0.179917,0.283104 -0.166687,0.288396 -0.153459,0.298979 -0.142875,0.304271 -0.127,0.312209 -0.11377,0.320145 -0.100542,0.325438 -0.08731,0.330729 -0.07144,0.338667 -0.05556,0.341312 -0.03969,0.34925 -0.02381,0.351896 -0.0079,0.354542 0.0079,0.357187 0.02381,0.351896 0.03969,0.346604 0.05556,0.343959 0.07144,0.33602 0.08731,0.333375 0.100542,0.325438 0.11377,0.3175 0.127,0.312208 0.142875,0.306917 0.153459,0.296333 0.166687,0.291042 0.179917,0.280458 0.1905,0.275167 0.203729,0.261937 0.214313,0.256646 0.224895,0.243417 0.232834,0.235479 0.246062,0.224896 0.254,0.214312 0.264584,0.201084 0.27252,0.193146 0.283105,0.17727 0.288395,0.169334 0.29898,0.153458 0.30427,0.140229 0.312209,0.129646 0.320146,0.113771 0.325437,0.100542 0.330729,0.08467 0.338667,0.07144 0.341312,0.05556 0.34925,0.04233 0.351896,0.02381 0.354542,0.0079 0.357187,-0.0079 0.351896,-0.02381 0.346604,-0.04233 0.343959,-0.05556 0.336021,-0.07144 0.333375,-0.08467 0.325437,-0.100542 0.3175,-0.113771 0.312208,-0.129646 0.306917,-0.140229 0.296333,-0.153458 0.291042,-0.169334 0.280458,-0.17727 0.275167,-0.193146 0.261938,-0.201084 0.256645,-0.214312 0.243417,-0.224896 0.235479,-0.235479 0.224896,-0.243417 0.214313,-0.256646 0.201083,-0.261937 0.193146,-0.275167 0.177271,-0.280458 0.169333,-0.291042 0.153458,-0.296333 0.140229,-0.306917 0.129646,-0.312208 0.113771,-0.3175 0.100542,-0.325438 0.08467,-0.333375 0.07144,-0.33602 0.05556,-0.343959 0.04233,-0.346604 0.02381,-0.351896 0.0079,-0.357187 -0.0079,-0.354542 -0.02381,-0.351896 -0.04233,-0.34925 -0.05556,-0.341312 -0.07144,-0.338667 -0.08467,-0.330729 -0.100542,-0.325438 -0.113771,-0.320145 -0.129646,-0.312209 -0.140229,-0.304271 -0.153458,-0.298979 -0.169333,-0.288396 -0.177271,-0.283104 -0.193146,-0.272521 -0.201083,-0.264583 -0.214313,-0.254 -0.224896,-0.246062 -0.235479,-0.23548 -0.243417,-0.22225 -0.256645,-0.214312 -0.261938,-0.203729 -0.275167,-0.1905 -0.280458,-0.179917 -0.291042,-0.166687 -0.296333,-0.153459 -0.306917,-0.142875 -0.312208,-0.127 -0.3175,-0.113771 -0.325437,-0.100541 -0.333375,-0.08731 -0.336021,-0.07144 -0.343959,-0.05556 -0.346604,-0.03969 -0.351896,-0.02381 -0.357187,-0.0079 -0.354542,0.0079 z"
           style="fill:#ff7a89;fill-opacity:1;stroke-width:0.26458332" />
      </g>
    </g>
    <g
       aria-label="Pretty"
       transform="matrix(0.26458333,0,0,0.26458333,66.550112,12.828938)"
       style="font-style:normal;font-weight:normal;font-size:40px;line-height:1.25;font-family:sans-serif;letter-spacing:0px;word-spacing:0px;fill:#ff7a89;fill-opacity:1;stroke:none"
       id="flowRoot5669">
      <path
         d="m 73.4375,75.028369 q 0,1.933594 -0.683594,3.59375 -0.664062,1.640625 -1.875,2.851562 -1.503906,1.503907 -3.554687,2.265625 -2.050782,0.742188 -5.175782,0.742188 H 58.28125 V 95.321338 H 54.414062 V 66.239306 h 7.890625 q 2.617188,0 4.433594,0.449219 1.816406,0.429688 3.222656,1.367188 1.660157,1.113281 2.558594,2.773437 0.917969,1.660156 0.917969,4.199219 z m -4.023438,0.09766 q 0,-1.503906 -0.527343,-2.617187 -0.527344,-1.113282 -1.601563,-1.816407 -0.9375,-0.605468 -2.148437,-0.859375 -1.191407,-0.273437 -3.027344,-0.273437 H 58.28125 v 11.621094 h 3.261719 q 2.34375,0 3.808593,-0.410157 1.464844,-0.429687 2.382813,-1.347656 0.917969,-0.9375 1.289062,-1.972656 0.390625,-1.035156 0.390625,-2.324219 z"
         style=""
         id="path821" />
      <path
         d="m 91.875,77.508838 h -0.195313 q -0.820312,-0.195313 -1.601562,-0.273438 -0.761719,-0.09766 -1.816406,-0.09766 -1.699219,0 -3.28125,0.761719 -1.582032,0.742187 -3.046875,1.933593 V 95.321338 H 78.261719 V 73.504931 h 3.671875 v 3.222657 q 2.1875,-1.757813 3.847656,-2.480469 1.679687,-0.742188 3.417969,-0.742188 0.957031,0 1.386718,0.05859 0.429688,0.03906 1.289063,0.175781 z"
         style=""
         id="path823" />
      <path
         d="M 113.63281,84.793994 H 97.558594 q 0,2.011719 0.605468,3.515625 0.605469,1.484375 1.660157,2.441406 1.015621,0.9375 2.402341,1.40625 1.40625,0.46875 3.08594,0.46875 2.22656,0 4.47266,-0.878906 2.26562,-0.898438 3.22265,-1.757813 h 0.19532 v 4.003907 q -1.85547,0.78125 -3.78907,1.308593 -1.93359,0.527344 -4.0625,0.527344 -5.429685,0 -8.47656,-2.929687 -3.046875,-2.949219 -3.046875,-8.359375 0,-5.351563 2.910156,-8.496094 2.929688,-3.144531 7.695309,-3.144531 4.41407,0 6.79688,2.578125 2.40234,2.578125 2.40234,7.324218 z m -3.57422,-2.8125 q -0.0195,-2.890625 -1.46484,-4.472656 -1.42578,-1.582032 -4.35547,-1.582032 -2.94922,0 -4.70703,1.738282 -1.738281,1.738281 -1.972656,4.316406 z"
         style=""
         id="path825" />
      <path
         d="m 130.52734,95.126025 q -1.03515,0.273438 -2.26562,0.449219 -1.21094,0.175781 -2.16797,0.175781 -3.33984,0 -5.07812,-1.796875 -1.73829,-1.796875 -1.73829,-5.761719 V 76.590869 h -2.48046 v -3.085938 h 2.48046 V 67.2354 h 3.67188 v 6.269531 h 7.57812 v 3.085938 h -7.57812 v 9.941406 q 0,1.71875 0.0781,2.695313 0.0781,0.957031 0.54688,1.796875 0.42969,0.78125 1.17187,1.152343 0.76172,0.351563 2.30469,0.351563 0.89844,0 1.875,-0.253906 0.97656,-0.273438 1.40625,-0.449219 h 0.19531 z"
         style=""
         id="path827" />
      <path
         d="m 146.30859,95.126025 q -1.03515,0.273438 -2.26562,0.449219 -1.21094,0.175781 -2.16797,0.175781 -3.33984,0 -5.07813,-1.796875 -1.73828,-1.796875 -1.73828,-5.761719 V 76.590869 h -2.48047 v -3.085938 h 2.48047 V 67.2354 h 3.67188 v 6.269531 h 7.57812 v 3.085938 h -7.57812 v 9.941406 q 0,1.71875 0.0781,2.695313 0.0781,0.957031 0.54688,1.796875 0.42969,0.78125 1.17187,1.152343 0.76172,0.351563 2.30469,0.351563 0.89844,0 1.875,-0.253906 0.97656,-0.273438 1.40625,-0.449219 h 0.19531 z"
         style=""
         id="path829" />
      <path
         d="m 169.47266,73.504931 -12.73438,29.863279 h -3.92578 l 4.0625,-9.10156 -8.69141,-20.761719 h 3.98438 l 6.69922,16.171875 6.75781,-16.171875 z"
         style=""
         id="path831" />
    </g>
    <g
       aria-label="Near"
       style="font-style:normal;font-weight:normal;font-size:10.58333302px;line-height:1.25;font-family:sans-serif;letter-spacing:0px;word-spacing:0px;fill:#ff7a89;fill-opacity:1;stroke:none;stroke-width:0.26458332"
       id="text5679">
      <path
         d="m 98.582797,47.904804 h -1.266073 l -3.648356,-6.8833 v 6.8833 h -0.956014 v -7.69462 h 1.586466 l 3.327963,6.283854 v -6.283854 h 0.956014 z"
         style="fill:#ff7a89;fill-opacity:1;stroke-width:0.26458332"
         id="path834" />
      <path
         d="m 105.38341,45.119445 h -4.25297 q 0,0.532267 0.1602,0.930175 0.1602,0.392741 0.43925,0.645956 0.26872,0.248047 0.63562,0.37207 0.37207,0.124023 0.81649,0.124023 0.58911,0 1.18339,-0.232543 0.59945,-0.237712 0.85266,-0.465088 h 0.0517 v 1.059367 q -0.49093,0.206705 -1.00253,0.346232 -0.51159,0.139526 -1.07487,0.139526 -1.4366,0 -2.24275,-0.775147 -0.80616,-0.780314 -0.80616,-2.211751 0,-1.415934 0.76998,-2.247924 0.77515,-0.831991 2.03605,-0.831991 1.16789,0 1.79834,0.682129 0.63562,0.682129 0.63562,1.937866 z m -0.94567,-0.744141 q -0.005,-0.764811 -0.38758,-1.18339 -0.37724,-0.418579 -1.15238,-0.418579 -0.78032,0 -1.2454,0.45992 -0.45992,0.45992 -0.52194,1.142049 z"
         style="fill:#ff7a89;fill-opacity:1;stroke-width:0.26458332"
         id="path836" />
      <path
         d="m 111.34171,47.904804 h -0.96635 v -0.614949 q -0.12919,0.08785 -0.3514,0.248047 -0.21704,0.155029 -0.42375,0.248046 -0.24288,0.118856 -0.5581,0.196371 -0.31523,0.08268 -0.73898,0.08268 -0.78031,0 -1.32291,-0.516764 -0.54261,-0.516764 -0.54261,-1.317749 0,-0.656291 0.27906,-1.059367 0.28422,-0.408244 0.80615,-0.640788 0.5271,-0.232544 1.26607,-0.315226 0.73897,-0.08268 1.58647,-0.124023 v -0.149862 q 0,-0.330729 -0.11886,-0.54777 -0.11369,-0.217041 -0.33073,-0.341065 -0.2067,-0.118855 -0.49609,-0.160197 -0.28939,-0.04134 -0.60462,-0.04134 -0.3824,0 -0.85266,0.103353 -0.47025,0.09819 -0.97151,0.289388 h -0.0517 v -0.98702 q 0.28422,-0.07751 0.82166,-0.170532 0.53743,-0.09302 1.05936,-0.09302 0.60978,0 1.05937,0.103352 0.45475,0.09819 0.78548,0.341065 0.32556,0.237711 0.49609,0.614949 0.17054,0.377238 0.17054,0.935344 z m -0.96635,-1.421102 v -1.607137 q -0.44442,0.02584 -1.04903,0.07751 -0.59945,0.05168 -0.95085,0.149862 -0.41858,0.118855 -0.67696,0.37207 -0.25838,0.248047 -0.25838,0.687297 0,0.496093 0.29972,0.749308 0.29972,0.248047 0.91467,0.248047 0.5116,0 0.93535,-0.196371 0.42374,-0.201538 0.78548,-0.480591 z"
         style="fill:#ff7a89;fill-opacity:1;stroke-width:0.26458332"
         id="path838" />
      <path
         d="m 116.82458,43.191914 h -0.0517 q -0.21704,-0.05168 -0.42375,-0.07235 -0.20153,-0.02584 -0.48059,-0.02584 -0.44958,0 -0.86816,0.201538 -0.41858,0.19637 -0.80615,0.511596 v 4.097941 h -0.97152 v -5.772257 h 0.97152 v 0.852661 q 0.57877,-0.465088 1.01802,-0.656291 0.44442,-0.19637 0.90434,-0.19637 0.25321,0 0.3669,0.0155 0.11369,0.01034 0.34107,0.04651 z"
         style="fill:#ff7a89;fill-opacity:1;stroke-width:0.26458332"
         id="path840" />
    </g>
  </g>
</svg>
